<svg xmlns="http://www.w3.org/2000/svg" xml:space="preserve" viewBox="0 0 393.15 393.15">  <linearGradient id="a" x1="330.83" x2="62.31" y1="424.81" y2="-40.28" gradientTransform="translate(0 4.31)" gradientUnits="userSpaceOnUse">    <stop offset="0" stop-color="#d9d9d9"></stop>    <stop offset=".05" stop-color="#ececec"></stop>    <stop offset=".11" stop-color="#fafafa"></stop>    <stop offset=".17" stop-color="#fff"></stop>    <stop offset=".28" stop-color="#dfdfdf"></stop>    <stop offset=".39" stop-color="#c2c2c2"></stop>    <stop offset=".63" stop-color="#a3a3a3"></stop>    <stop offset=".78" stop-color="#e5e5e5"></stop>    <stop offset=".84" stop-color="#fff"></stop>    <stop offset=".89" stop-color="#f9f9f9"></stop>    <stop offset=".95" stop-color="#e9e9e9"></stop>    <stop offset="1" stop-color="#d9d9d9"></stop>  </linearGradient>  <path fill="url(#a)" d="M0 0h393.15v393.15H0z"></path>  <path d="M129.75 223.21c0-32.81.06-65.62-.09-98.44-.02-3.73.9-4.92 4.72-4.75 7.27.32 14.57.09 21.86.09 4.92 0 4.92.01 4.92 5.13v189.47c0 5.63 0 5.63 5.55 5.63 27.54 0 55.08-.01 82.62.02 1.82 0 3.93-.72 4.07 2.61.14 3.32-1.42 3.49-3.99 3.48-29.39-.06-58.79-.04-88.18-.04-9.14 0-18.28-.15-27.42.08-3.27.08-4.16-.84-4.14-4.11.12-33.05.08-66.11.08-99.17z"></path>  <path d="M223.96 191.35c0 31.8-.06 63.6.08 95.4.02 3.58-.99 4.61-4.54 4.49-7.89-.26-15.79-.19-23.69-.02-2.64.05-3.41-.84-3.32-3.37.16-4.43.04-8.87.04-13.31V96.32c0-5.29-.01-5.29-5.16-5.29H131.1c-1.98 0-3.87.41-3.88-2.8-.01-3.05 1.37-3.33 3.84-3.33 51.09.05 102.18.04 153.26.02 2.26 0 4.13-.08 3.98 3.17-.1 2.23-.72 3.01-2.99 2.97-6.78-.11-13.57-.04-20.36-.04-12.09 0-24.19.14-36.28-.08-3.65-.07-4.82.77-4.8 4.65.17 31.92.09 63.84.09 95.76z"></path></svg>